<svg version="1.1" id="Layer_1" xmlns="http://www.w3.org/2000/svg" x="0px" y="0px" viewBox="0 0 886 336" style="enable-background:new 0 0 886 336;" xmlns:xlink="http://www.w3.org/1999/xlink" xml:space="preserve" data-inject-url="https://cdn.shopify.com/s/files/1/0014/1962/t/53/assets/logo-dead-cells.svg?v=4570725287201213094" class="injectable">

<g>
	<path class="st0" d="M667.4,35.2c0.5,0.5,0.9,1.1,1.4,1.6c6.5,5.6,13,11.2,19.5,16.8c1,0.8,1.3,1.7,1.3,2.9c0,65.6,0,131.3,0,196.9   c0,0.7,0,1.4,0,2.3c1.4,0,2.6,0,3.8,0c3.9,0,7.8,0,11.6,0c0.7,0,1.5,0.3,1.9,0.7c6.7,7,13.4,14.2,20.1,21.2   c0.1,0.1,0.1,0.2,0.2,0.5c-0.6,0-1.1,0.1-1.7,0.1c-18.9,0-37.7,0-56.6,0c-2,0-2.1,0-2.1-2.1c0-79.7,0-159.5,0-239.2   c0-0.6,0.1-1.3,0.1-1.9C667.2,35.2,667.3,35.2,667.4,35.2z"></path>
	<path class="st0" d="M39.7,54.9c0.8,0,1.4,0,2,0c15.8,0,31.5,0,47.3,0c1.3,0,2.2,0.4,3.1,1.3c4.8,5.1,9.6,10.1,14.5,15.1   c0.9,1,1.3,2,1.3,3.3c0,36.8,0,73.7,0,110.5c0,24.2,0,48.4,0,72.6c0,1.3-0.3,2.2-1.3,3.2c-5.5,5.4-11,11-16.5,16.4   c-0.6,0.6-1.5,1-2.3,1c-15.6,0.1-31.1,0-46.7,0c-0.5,0-0.9-0.1-1.5-0.1C39.7,203.8,39.7,129.5,39.7,54.9z M59.9,255.6   c0.3,0.1,0.5,0.1,0.7,0.1c5.2,0,10.4,0,15.6,0c0.5,0,1.2-0.4,1.6-0.7c2.7-2.4,5.4-4.9,8.2-7.4c0.8-0.7,1.1-1.4,1.1-2.4   c0-51.7,0-103.3,0-155c0-0.8-0.4-1.7-0.9-2.3c-2.8-3.2-5.7-6.3-8.6-9.4c-0.5-0.6-1.5-1-2.3-1c-4.6-0.1-9.2,0-13.8,0   c-0.5,0-1,0.1-1.5,0.1C59.9,137,59.9,196.2,59.9,255.6z"></path>
	<path class="st0" d="M301.4,278.3c0-0.9,0-1.5,0-2.1c0-73,0-146.1,0-219.1c0-2.2,0-2.2,2.3-2.2c15.5,0,31,0,46.5,0   c1.3,0,2.2,0.4,3.1,1.4c4.6,5.2,9.2,10.3,13.9,15.4c0.8,0.9,1.2,1.8,1.2,3.1c0,35.7,0,71.4,0,107c0,25.5,0,51,0,76.5   c0,1.2-0.4,2.1-1.2,3c-5,5.2-9.9,10.5-14.9,15.8c-0.8,0.9-1.7,1.3-3,1.3c-15.3,0-30.6,0-45.9,0   C302.9,278.4,302.2,278.3,301.4,278.3z M321.5,255.7c5.5,0,10.8,0,16.2,0c0.4,0,0.9-0.4,1.3-0.7c2.9-2.6,5.8-5.3,8.7-8   c0.5-0.5,1-1.4,1-2.1c0-51.8,0.1-103.6,0-155.5c0-0.7-0.4-1.6-0.9-2.2c-2.7-3-5.6-6-8.4-8.9c-0.5-0.6-1.5-1-2.3-1   c-4.7-0.1-9.3,0-14,0c-0.5,0-1,0.1-1.6,0.1C321.5,136.9,321.5,196.2,321.5,255.7z"></path>
	<path class="st0" d="M261.2,278.3c0-33.9,0-67.3,0-100.9c-9.4,0-18.7,0-28.2,0c0,0.8,0,1.6,0,2.3c0,32.2,0,64.3,0,96.5   c0,1.5-0.4,2.6-1.5,3.7c-5.7,5.8-11.3,11.7-16.9,17.5c-0.3,0.3-0.6,0.6-1,1.2c-0.1-0.8-0.1-1.2-0.1-1.7c0-69.8,0-139.6,0-209.4   c0-0.7,0.2-1.5,0.6-2c10.5-14.3,21-28.7,31.4-43c0.2-0.2,0.4-0.5,0.7-0.9c0.4,0.5,0.8,0.9,1.1,1.4c10.5,14.6,20.9,29.2,31.4,43.8   c0.5,0.7,0.7,1.8,0.7,2.8c0,49.1,0,98.3,0,147.4c0,7,0,14,0,21.1c0,0.8-0.4,1.8-1,2.4C272.8,266.5,267.1,272.2,261.2,278.3z    M247,76.8c-0.3,0.3-0.5,0.5-0.6,0.6c-4.2,5.7-8.5,11.3-12.6,17c-0.4,0.6-0.6,1.5-0.6,2.3c0,19.3,0,38.7,0,58c0,0.6,0,1.1,0,1.7   c9.4,0,18.7,0,28,0c0-0.8,0-1.5,0-2.2c0-17.2-0.2-34.5,0.1-51.7c0.1-4.9-0.7-9.1-4.3-12.6c-0.4-0.4-0.7-0.9-1-1.4   C253,84.7,250.1,80.9,247,76.8z"></path>
	<path class="st0" d="M151.7,256c13.1,0,26,0,39.2,0c0,7.5,0,14.8,0,22.3c-0.6,0-1.2,0.1-1.8,0.1c-18.9,0-37.8,0-56.7,0   c-2,0-2.1,0-2.1-2.1c0-73.1,0-146.2,0-219.3c0-2.1,0-2.1,2.2-2.1c24.5,0,49,0,73.6,0c0.6,0,1.2,0,2.1,0c-0.5,0.8-0.8,1.3-1.2,1.7   c-5,6.6-10,13.2-14.9,19.8c-0.6,0.9-1.3,1.1-2.3,1.1c-12.1,0-24.2,0-36.3,0c-0.6,0-1.2,0-1.9,0c0,26.1,0,52,0,78.1   c7.6,0,15.1,0,22.8,0c0,7.1,0,14,0,21.1c-7.5,0-14.9,0-22.5,0C151.7,203.2,151.7,229.5,151.7,256z"></path>
	<path class="st0" d="M797.6,55.1c18.6,0,36.9,0,55.4,0c-0.2,0.4-0.3,0.7-0.5,1c-5.1,6.7-10.2,13.4-15.4,20.1   c-0.4,0.5-1.4,0.9-2.1,0.9c-4.3,0.1-8.6,0-13,0c0,0.7-0.1,1.3-0.1,1.9c0,21.8,0,43.7,0,65.5c0,1.4,0.5,2.2,1.5,3   c9.4,7.7,18.7,15.4,28,23c0.8,0.7,1.1,1.3,1.1,2.4c0,34.5,0,69,0,103.6c0,0.5,0,1,0,1.7c-0.8,0-1.4,0.1-2,0.1c-17,0-33.9,0-50.9,0   c-1.6,0-2.1-0.4-2-2c0.1-6.1,0.1-12.3,0-18.4c0-1.7,0.6-2,2.1-2c9.1,0.1,18.1,0,27.2,0c0.7,0,1.3,0,2.1,0c0-0.8,0-1.4,0-1.9   c0-21.7,0-43.4,0-65.1c0-1.3-0.4-2.2-1.4-3.1c-9.7-8.3-19.3-16.6-28.9-24.9c-0.7-0.6-1.1-1.2-1.1-2.2c0-34.1,0-68.1,0-102.2   C797.6,56.2,797.6,55.8,797.6,55.1z"></path>
	<path class="st0" d="M437.1,87.8c-3.2,3.6-6.6,7.1-9.6,10.9c-3.6,4.6-6.3,9.8-6.9,15.6c-1.1,10.7,1.8,20.3,9.8,27.8   c5,4.7,13.5,4.8,19,0.7c0.2-0.1,0.4-0.3,0.7-0.5c0.2,1.4,0.3,2.6,0.6,3.8c0.9,4.7,3.2,8.5,7,11.4c4.9,3.7,9.8,7.3,14.7,11   c11.8,8.7,17.9,20.6,18.8,35.2c0.5,8.2-0.5,16.2-4.5,23.6c-5.9,11.2-15.3,17.4-27.8,18.6c-14.8,1.4-26.5-4.2-35.7-15.9   c-7.2-9.3-8.6-19.8-7.7-30.9c2.2-0.3,4.2-0.4,6.2-0.9c5.2-1.3,8.3-5.2,8.6-10.5c0.7-9.5-2.8-17.3-9.1-24.2   c-4.9-5.4-11.4-7.6-18.1-9.4c-2.2-0.6-4.5-1-6.8-1.3c-1.3-0.2-1.9-0.8-2.2-2.1c-2.8-11.8-2-23.3,3-34.4c7.1-15.9,19.6-25,36.6-28   C435,88,436.2,87.9,437.1,87.8z M455.2,235c0.1,0,0.2,0,0.2,0c0-0.6,0.1-1.1,0.1-1.7c0.6-6.1,1.5-12.2,3.1-18.2   c1.3-5.1,4.4-8.1,9.5-9.4c1-0.2,1.9-0.5,2.9-0.7c2.7-0.5,5.4-0.9,7.6-1.3c-3.6-0.9-7.6-1.8-11.5-3c-3.9-1.2-6.4-3.8-7.1-7.8   c-1.1-5.7-2.2-11.5-3.2-17.3c-0.3-1.9-0.5-3.8-0.7-5.7c-0.7,3.9-1,7.8-1.6,11.7c-0.8,4.3-1.8,8.6-2.8,12.8c-0.4,1.9-1.6,3.3-3.4,4   c-2.6,1-5.1,2.1-7.8,2.9c-2.6,0.7-5.3,1-8.3,1.6c0.9,0.2,1.6,0.3,2.2,0.5c4.1,1.2,8.2,2.3,12.3,3.6c2.6,0.8,4.3,2.7,4.9,5.5   c0.8,3.5,1.6,7,2.1,10.6C454.4,227.1,454.7,231,455.2,235z"></path>
	<path class="st0" d="M590.8,54.8c19.9,0,39.7,0,59.5,0c0,7.5,0,14.9,0,22.6c-12.8,0-25.6,0-38.6,0c0,26.2,0,52.1,0,78.2   c7.6,0,15.2,0,22.8,0c0,7,0,13.9,0,21c-7.5,0-15.1,0-22.7,0c0,26.5,0,52.8,0,79.4c12.7,0,25.5,0,38.6,0c-2.1,2.3-3.9,4.3-5.7,6.3   c-4.6,5-9.1,10.1-13.8,15.1c-0.5,0.5-1.4,1-2.1,1c-12.3,0.1-24.5,0-36.8,0c-0.4,0-0.8-0.1-1.3-0.1   C590.8,203.7,590.8,129.3,590.8,54.8z"></path>
	<path class="st0" d="M536.9,256c13,0,26,0,39.1,0c0,7.5,0,14.8,0,22.2c-0.6,0-1.2,0.1-1.8,0.1c-18.7,0-37.3,0-56,0c-2,0-2,0-2-2.1   c0-43.2,0-86.4,0-129.7c0-29.8,0-59.6-0.1-89.4c0-0.7,0-1.5,0-2.3c19.9,0,39.8,0,59.7,0c-0.1,0.3-0.2,0.6-0.4,0.9   c-5.1,7-10.2,14-15.3,20.9c-0.4,0.5-1.3,0.9-1.9,0.9c-6.5,0.1-13,0-19.5,0c-0.6,0-1.1,0-1.8,0C536.9,137.1,536.9,196.5,536.9,256z"></path>
	<path class="st0" d="M756,255.6c5.2,0,10.2,0.1,15.2,0c1.7,0,2.9,0.5,4,1.8c5.8,6.6,11.7,13.2,17.5,19.7c0.3,0.3,0.5,0.6,0.9,1.1   c-20.5,0-40.7,0-61,0c0-77,0-154,0-231.2c0.4,0.2,0.7,0.4,1,0.6c7,5.7,13.9,11.4,20.9,17.1c1.1,0.9,1.5,1.9,1.5,3.3   c0,61.7,0,123.4,0,185.2C756,253.9,756,254.7,756,255.6z"></path>
	<path class="st0" d="M469.4,129.2c0.1,1.9,0.2,3.8,0.4,5.7c0.7,5.9,3.4,9.1,9.1,10.6c2.4,0.6,4.6,1.5,6.3,3.2   c2.5,2.4,3.7,5.3,2.9,8.8c-0.8,3.2-2.7,5.4-5.9,6.3c-3.3,0.9-6.4,0.2-9.1-1.7c-6.7-4.6-9.8-10.9-9-19.1c0.4-3.8,1-7.6,2.9-11   c0.6-1.1,1.4-2.1,2.1-3.1C469.2,129.1,469.3,129.2,469.4,129.2z"></path>
</g>
</svg>
